<svg width="24" height="24" viewBox="0 0 24 24" fill="none" xmlns="http://www.w3.org/2000/svg">
<rect width="24" height="24" rx="12" fill="#29303D"/>
<path d="M17.3333 10.6667C17.3333 13.9954 13.6407 17.462 12.4007 18.5327C12.2852 18.6196 12.1445 18.6665 12 18.6665C11.8555 18.6665 11.7149 18.6196 11.5993 18.5327C10.3593 17.462 6.66667 13.9954 6.66667 10.6667C6.66667 9.25222 7.22857 7.89567 8.22877 6.89547C9.22896 5.89528 10.5855 5.33337 12 5.33337C13.4145 5.33337 14.771 5.89528 15.7712 6.89547C16.7714 7.89567 17.3333 9.25222 17.3333 10.6667Z" stroke="#FBFCEF" stroke-linecap="round" stroke-linejoin="round"/>
<path d="M12 12.6667C13.1046 12.6667 14 11.7713 14 10.6667C14 9.56214 13.1046 8.66671 12 8.66671C10.8954 8.66671 10 9.56214 10 10.6667C10 11.7713 10.8954 12.6667 12 12.6667Z" stroke="#FBFCEF" stroke-linecap="round" stroke-linejoin="round"/>
</svg>
